<?xml version="1.0" encoding="UTF-8"?>
<svg width="161px" height="26px" viewBox="0 0 161 26" version="1.1" xmlns="http://www.w3.org/2000/svg" xmlns:xlink="http://www.w3.org/1999/xlink">
    <!-- Generator: Sketch 61 (89581) - https://sketch.com -->
    <title>logo new</title>
    <desc>Created with Sketch.</desc>
    <g id="Page-1" stroke="none" stroke-width="1" fill="none" fill-rule="evenodd">
        <g id="Homepage" transform="translate(-36.000000, -20.000000)" fill-rule="nonzero">
            <g id="logo-new" transform="translate(36.000000, 20.000000)">
                <path d="M36.9865622,18.9160134 C40.0302352,18.9160134 42.1668533,17.343785 42.1668533,14.5419933 L42.1668533,14.5016797 C42.1668533,12.0425532 40.5543113,11.0145577 37.6920493,10.268757 C35.2530795,9.64389698 34.6483763,9.34154535 34.6483763,8.41433371 L34.6483763,8.37402016 C34.6483763,7.68868981 35.2732363,7.14445689 36.462486,7.14445689 C37.6517357,7.14445689 38.881299,7.66853303 40.131019,8.53527436 L41.743561,6.19708847 C40.31243,5.0481523 38.5587906,4.4031355 36.5027996,4.4031355 C33.6203807,4.4031355 31.5643897,6.09630459 31.5643897,8.65621501 L31.5643897,8.69652856 C31.5643897,11.4983203 33.3986562,12.2844345 36.2407615,13.0100784 C38.5991041,13.6147816 39.0828667,14.0179171 39.0828667,14.8040314 L39.0828667,14.8443449 C39.0828667,15.6707727 38.3169093,16.174692 37.0470325,16.174692 C35.4344905,16.174692 34.1041433,15.5095185 32.8342665,14.4613662 L31,16.6584546 C32.6931691,18.1702128 34.849944,18.9160134 36.9865622,18.9160134 Z M47.6091825,18.7144457 L47.6091825,12.68757 C47.6091825,11.2362822 48.3549832,10.4904815 49.5240761,10.4904815 C50.6931691,10.4904815 51.3784994,11.2362822 51.3784994,12.68757 L51.3784994,18.7144457 L54.4423292,18.7144457 L54.4423292,11.7200448 C54.4423292,9.24076148 53.0918253,7.70884658 50.7737962,7.70884658 C49.2217245,7.70884658 48.3146697,8.53527436 47.6091825,9.44232923 L47.6091825,4 L44.5453527,4 L44.5453527,18.7144457 L47.6091825,18.7144457 Z M60.3885778,6.72116461 L60.3885778,4 L57.1634938,4 L57.1634938,6.72116461 L60.3885778,6.72116461 Z M60.3079507,18.7144457 L60.3079507,7.91041433 L57.2441209,7.91041433 L57.2441209,18.7144457 L60.3079507,18.7144457 Z M66.2541993,21.9395297 L66.2541993,17.3034714 C66.9798432,18.1702128 67.987682,18.9160134 69.6203807,18.9160134 C72.1802912,18.9160134 74.5386338,16.9406495 74.5386338,13.3325868 L74.5386338,13.2922732 C74.5386338,9.68421053 72.1399776,7.70884658 69.6203807,7.70884658 C68.0279955,7.70884658 67,8.45464726 66.2541993,9.462486 L66.2541993,7.91041433 L63.1903695,7.91041433 L63.1903695,21.9395297 L66.2541993,21.9395297 Z M68.8342665,16.3157895 C67.4031355,16.3157895 66.2138858,15.1265398 66.2138858,13.3325868 L66.2138858,13.2922732 C66.2138858,11.4983203 67.4031355,10.3090705 68.8342665,10.3090705 C70.2653975,10.3090705 71.474804,11.4983203 71.474804,13.2922732 L71.474804,13.3325868 C71.474804,15.1466965 70.2653975,16.3157895 68.8342665,16.3157895 Z M82.6416573,13.93729 L82.6416573,10.9944009 L76.4333707,10.9944009 L76.4333707,13.93729 L82.6416573,13.93729 Z M92.1959686,18.956327 C96.549832,18.956327 99.7144457,15.6707727 99.7144457,11.6595745 L99.7144457,11.6192609 C99.7144457,7.60806271 96.5901456,4.36282195 92.2362822,4.36282195 C87.8824188,4.36282195 84.7178052,7.64837626 84.7178052,11.6595745 L84.7178052,11.699888 C84.7178052,15.7110862 87.8421053,18.956327 92.1959686,18.956327 Z M92.2362822,16.0940649 C89.7368421,16.0940649 87.9630459,14.0783875 87.9630459,11.6595745 L87.9630459,11.6192609 C87.9630459,9.20044793 89.6965286,7.22508399 92.1959686,7.22508399 C94.6954087,7.22508399 96.4692049,9.24076148 96.4692049,11.6595745 L96.4692049,11.699888 C96.4692049,14.118701 94.7357223,16.0940649 92.2362822,16.0940649 Z M107.99888,13.93729 L107.99888,10.9944009 L101.790594,10.9944009 L101.790594,13.93729 L107.99888,13.93729 Z M116.202688,18.7144457 C120.637178,18.7144457 123.701008,15.6304591 123.701008,11.6595745 L123.701008,11.6192609 C123.701008,7.64837626 120.637178,4.60470325 116.202688,4.60470325 L110.699888,4.60470325 L110.699888,18.7144457 L116.202688,18.7144457 Z M116.202688,15.912654 L113.804031,15.912654 L113.804031,7.40649496 L116.202688,7.40649496 C118.742441,7.40649496 120.455767,9.16013438 120.455767,11.6595745 L120.455767,11.699888 C120.455767,14.1993281 118.742441,15.912654 116.202688,15.912654 Z M129.203807,18.9160134 C130.695409,18.9160134 131.723404,18.3717805 132.469205,17.5453527 L132.469205,18.7144457 L135.432251,18.7144457 L135.432251,12.4456887 C135.432251,10.9944009 135.069429,9.80515118 134.263158,8.99888018 C133.4972,8.23292273 132.287794,7.78947368 130.614782,7.78947368 C128.780515,7.78947368 127.611422,8.13213886 126.422172,8.65621501 L127.18813,10.9944009 C128.175812,10.6315789 129.00224,10.4098544 130.171333,10.4098544 C131.703247,10.4098544 132.489362,11.1153415 132.489362,12.3852184 L132.489362,12.5666293 C131.723404,12.3045913 130.93729,12.1231803 129.848824,12.1231803 C127.288914,12.1231803 125.494961,13.2116461 125.494961,15.5699888 L125.494961,15.6103024 C125.494961,17.7469205 127.167973,18.9160134 129.203807,18.9160134 Z M130.131019,16.7995521 C129.143337,16.7995521 128.458007,16.3157895 128.458007,15.4893617 L128.458007,15.4490482 C128.458007,14.481523 129.264278,13.9574468 130.574468,13.9574468 C131.320269,13.9574468 132.005599,14.118701 132.529675,14.3605823 L132.529675,14.9048152 C132.529675,16.0134378 131.56215,16.7995521 130.131019,16.7995521 Z M141.358343,6.72116461 L141.358343,4 L138.133259,4 L138.133259,6.72116461 L141.358343,6.72116461 Z M141.277716,18.7144457 L141.277716,7.91041433 L138.213886,7.91041433 L138.213886,18.7144457 L141.277716,18.7144457 Z M147.365062,18.7144457 L147.365062,4 L144.301232,4 L144.301232,18.7144457 L147.365062,18.7144457 Z M152.827548,22 C154.661814,22 155.548712,21.1735722 156.37514,18.9764838 L160.527436,7.91041433 L157.342665,7.91041433 L154.984323,15.2676372 L152.525196,7.91041433 L149.279955,7.91041433 L153.512878,18.7547592 C153.25084,19.2989922 152.968645,19.4602464 152.444569,19.4602464 C152.041433,19.4602464 151.537514,19.2788354 151.134378,19.0369541 L150.106383,21.2541993 C150.892497,21.7178052 151.718925,22 152.827548,22 Z" id="Ship-O-Daily" stroke="#262626" stroke-width="0.5" fill="#262626"></path>
                <g id="Group-12" fill="#1890FF">
                    <g id="ship-front-view">
                        <path d="M21.5844655,12.4445402 L12.1385632,8.32744253 C11.5932414,8.08961494 10.6999023,8.08929885 10.1542011,8.32649425 L0.682442529,12.4451724 C0.136614943,12.6826839 -0.13908046,13.3497011 0.0699195402,13.9276437 L2.59296552,20.9114425 C2.80196552,21.4895747 3.45627586,21.9623218 4.04768391,21.9623218 L18.2191609,21.9623218 C18.8105057,21.9623218 19.4647529,21.4895115 19.6736264,20.9114425 L22.1969253,13.9276437 C22.4056092,13.3497011 22.1301667,12.6821149 21.5844655,12.4445402 Z" id="Path"></path>
                        <path d="M4.39734483,10.0997069 C5.5941954,9.69258046 9.99862069,7.65309195 9.99862069,7.65309195 C10.310477,7.51742529 10.7175402,7.44263793 11.1450862,7.44263793 C11.5738333,7.44263793 11.9822241,7.5178046 12.2946494,7.65410345 C12.2946494,7.65410345 16.6143621,9.52625287 17.7500805,10.0312414 C18.4887241,10.3595977 18.4887241,9.7167931 18.4887241,9.7167931 L18.4887241,5.85737356 C18.4887241,5.33386207 18.0789425,4.90549425 17.5779368,4.90549425 L4.68859195,4.90549425 C4.18777586,4.90549425 3.77773904,5.33379885 3.77773904,5.85737356 L3.77773904,9.7796954 C3.77773904,9.7796954 3.77154598,10.3125632 4.39734483,10.0997069 Z M6.74363218,5.92135057 C6.74363218,5.76608621 6.86513793,5.63901724 7.01370115,5.63901724 L15.2527011,5.63901724 C15.4013276,5.63901724 15.5227069,5.76608621 15.5227069,5.92135057 L15.5227069,6.04386782 C15.5227069,6.19913218 15.4012011,6.32620115 15.2527011,6.32620115 L7.01370115,6.32620115 C6.86513793,6.32620115 6.74363218,6.19913218 6.74363218,6.04386782 L6.74363218,5.92135057 Z" id="Shape"></path>
                        <path d="M7.2912931,4.18448851 L14.9748563,4.18448851 C15.4679598,4.18448851 15.8721149,3.76927011 15.8848218,3.25713793 L15.8860862,1.0034023 C15.8860862,0.479954023 15.4761782,0.0514597701 14.9752989,0.0514597701 L7.29154598,0.0514597701 C6.79054023,0.0514597701 6.38044253,0.479954023 6.38044253,1.0034023 L6.3817069,3.25713793 C6.39428736,3.76927011 6.79837931,4.18448851 7.2912931,4.18448851 Z M13.9419943,1.28579885 C14.4418621,1.28579885 14.8468391,1.70917241 14.8468391,2.23141954 C14.8468391,2.75366667 14.4418621,3.17704023 13.9419943,3.17704023 C13.4422529,3.17704023 13.037023,2.75366667 13.037023,2.23141954 C13.037023,1.70917241 13.4422529,1.28579885 13.9419943,1.28579885 Z M11.112023,1.28579885 C11.6117644,1.28579885 12.0168678,1.70917241 12.0168678,2.23141954 C12.0168678,2.75366667 11.6117644,3.17704023 11.112023,3.17704023 C10.6121552,3.17704023 10.2073046,2.75366667 10.2073046,2.23141954 C10.2073046,1.70917241 10.612092,1.28579885 11.112023,1.28579885 Z M8.28211494,1.28579885 C8.78198276,1.28579885 9.18695977,1.70917241 9.18695977,2.23141954 C9.18695977,2.75366667 8.78198276,3.17704023 8.28211494,3.17704023 C7.78237356,3.17704023 7.37727011,2.75366667 7.37727011,2.23141954 C7.37727011,1.70917241 7.78237356,1.28579885 8.28211494,1.28579885 Z" id="Shape"></path>
                    </g>
                    <path d="M3.39100487,25.4271572 C4.18146489,25.4271572 4.91901911,25.0616594 5.41824083,24.4642009 C5.91746256,25.0616594 6.65501677,25.4271572 7.4454768,25.4271572 C8.23593683,25.4271572 8.97349104,25.0616594 9.47276403,24.4642009 C9.97203702,25.0616594 10.7095912,25.4271572 11.5000513,25.4271572 C12.2905113,25.4271572 13.0280655,25.0616594 13.5272872,24.4642009 C14.0265602,25.0616594 14.7641144,25.4271572 15.5545745,25.4271572 C16.3450345,25.4271572 17.0825887,25.0616594 17.5818104,24.4642009 C18.0810834,25.0616594 18.8185864,25.4271572 19.6090464,25.4271572 C20.7461625,25.4271572 21.5856322,24.8370961 21.972788,23.7656288 C22.0635788,23.5143581 21.9197796,23.2416638 21.6516107,23.1565939 C21.3834418,23.0713799 21.0924085,23.206262 21.0016177,23.4575328 C20.7562618,24.1364105 20.3007694,24.4664585 19.6089951,24.4664585 C18.9386498,24.4664585 18.3226969,24.0082052 18.0762132,23.3262052 C18.0037753,23.1257074 17.8037893,22.9998079 17.5897053,23.0001921 C17.5867832,23.0000961 17.583861,23.000048 17.5809389,23 C17.5789908,23.000048 17.577094,23.0000961 17.5751972,23.0001441 C17.3606006,22.9991834 17.1598456,23.1252751 17.0872026,23.3262533 C16.8407189,24.0082533 16.224766,24.4665066 15.5544719,24.4665066 C14.8841266,24.4665066 14.2681737,24.0082533 14.02169,23.3262533 C13.9492521,23.1257074 13.7492661,22.9998079 13.5351821,23.0002402 C13.53226,23.0001441 13.5293378,23.0000961 13.526467,23.000048 C13.5245702,23.0000961 13.5226734,23.0001441 13.5207253,23.0001921 C13.3060774,22.9991834 13.1053224,23.1253231 13.0327307,23.3263013 C12.786247,24.0083013 12.1702941,24.4665546 11.5,24.4665546 C10.8296546,24.4665546 10.2137018,24.0083013 9.96721808,23.3263013 C9.89472891,23.1258035 9.69479415,22.9998559 9.48071016,23.0002882 C9.47778803,23.0001921 9.47486591,23.0001441 9.47199505,23.0000961 C9.47009824,23.0001441 9.46820142,23.0001921 9.46625334,23.0002402 C9.25160543,22.9992314 9.05085042,23.1253712 8.97825872,23.3263493 C8.73177504,24.0083493 8.11582218,24.4666026 7.4454768,24.4666026 C6.77513143,24.4666026 6.15917856,24.0083493 5.91274615,23.3263493 C5.84030824,23.1258515 5.64032222,22.999952 5.42623822,23.0003362 C5.4233161,23.0002402 5.42039398,23.0001921 5.41752312,23.0001441 C5.4156263,23.0001921 5.41372948,23.0002402 5.4117814,23.0002882 C5.19713349,22.9992795 4.99642975,23.1254192 4.92378678,23.3263974 C4.67730311,24.0083974 4.06135024,24.4666507 3.39100487,24.4666507 C2.69923059,24.4666507 2.24373818,24.1366026 1.99838234,23.4577249 C1.90759145,23.2065022 1.61660948,23.0716201 1.3483893,23.156786 C1.08022039,23.2418559 0.936421159,23.5145022 1.02721205,23.765821 C1.41441904,24.8370961 2.25388872,25.4271572 3.39100487,25.4271572 Z" id="Path"></path>
                </g>
            </g>
        </g>
    </g>
</svg>