<?xml version="1.0" encoding="UTF-8"?>
<svg width="16px" height="16px" viewBox="0 0 16 16" version="1.1" xmlns="http://www.w3.org/2000/svg" xmlns:xlink="http://www.w3.org/1999/xlink">
    <!-- Generator: Sketch 61 (89581) - https://sketch.com -->
    <title>Shape</title>
    <desc>Created with Sketch.</desc>
    <g id="Page-1" stroke="none" stroke-width="1" fill="none" fill-rule="evenodd">
        <g id="Homepage" transform="translate(-375.000000, -512.000000)" fill="#424242">
            <g id="Asymmetrical-Block-Copy" transform="translate(132.000000, 146.000000)">
                <g id="Group-7" transform="translate(0.000000, 366.000000)">
                    <path d="M255.754636,11.9615669 L246.487909,11.9615669 L244.133364,15.2151131 C244.009909,15.3853895 243.826,15.4796748 243.636364,15.4796748 C243.565727,15.4796748 243.494455,15.466306 243.425727,15.440272 C243.170545,15.3410613 243,15.0750924 243,14.7760532 L243,11.2579453 L243,2.7842306 C243,1.24892831 244.129545,7.99360578e-15 245.518727,7.99360578e-15 L255.754636,7.99360578e-15 C257.143182,7.99360578e-15 258.272727,1.24892831 258.272727,2.7842306 L258.272727,9.17733629 C258.272727,10.7126386 257.143182,11.9615669 255.754636,11.9615669 Z M257,2.7842306 C257,2.02502291 256.441273,1.40724316 255.754636,1.40724316 L245.518727,1.40724316 C244.831455,1.40724316 244.272727,2.02502291 244.272727,2.7842306 L244.272727,11.2579453 L244.272727,12.7707317 L245.684818,10.8188854 C245.692455,10.8083311 245.703273,10.8041094 245.711545,10.7942587 C245.741455,10.7569667 245.776455,10.7295255 245.812727,10.700677 C245.844545,10.674643 245.873818,10.6472018 245.908818,10.6289076 C245.943182,10.6106135 245.980091,10.6028736 246.017,10.590912 C246.060909,10.5782469 246.103545,10.564878 246.148727,10.5620636 C246.160182,10.5613599 246.170364,10.5543237 246.181818,10.5543237 L255.754636,10.5543237 C256.441273,10.5543237 257,9.93654398 257,9.17733629 L257,2.7842306 Z M254.454545,5.62897265 L246.818182,5.62897265 C246.466909,5.62897265 246.181818,5.31375018 246.181818,4.92535107 C246.181818,4.53695196 246.466909,4.22172949 246.818182,4.22172949 L254.454545,4.22172949 C254.805818,4.22172949 255.090909,4.53695196 255.090909,4.92535107 C255.090909,5.31375018 254.805818,5.62897265 254.454545,5.62897265 Z M246.818182,6.33259424 L251.909091,6.33259424 C252.260364,6.33259424 252.545455,6.6478167 252.545455,7.03621582 C252.545455,7.42461493 252.260364,7.7398374 251.909091,7.7398374 L246.818182,7.7398374 C246.466909,7.7398374 246.181818,7.42461493 246.181818,7.03621582 C246.181818,6.6478167 246.466909,6.33259424 246.818182,6.33259424 Z" id="Shape"></path>
                </g>
            </g>
        </g>
    </g>
</svg>