<?xml version="1.0" encoding="UTF-8"?>
<svg width="10px" height="18px" viewBox="0 0 10 18" version="1.1" xmlns="http://www.w3.org/2000/svg" xmlns:xlink="http://www.w3.org/1999/xlink">
    <!-- Generator: Sketch 61 (89581) - https://sketch.com -->
    <title>Stroke 1</title>
    <desc>Created with Sketch.</desc>
    <g id="Page-1" stroke="none" stroke-width="1" fill="none" fill-rule="evenodd">
        <g id="Homepage" transform="translate(-482.000000, -511.000000)" stroke="#424242">
            <g id="Asymmetrical-Block-Copy" transform="translate(132.000000, 146.000000)">
                <g id="Group-7" transform="translate(0.000000, 366.000000)">
                    <path d="M357.661593,2.69996847 C358.156636,2.68343026 358.65168,2.69666083 359.148929,2.69555828 L359.354003,2.69555828 L359.354003,0.116699479 C359.088289,0.091340885 358.81155,0.0527517195 358.53481,0.0395211485 C358.026536,0.0163676492 357.517159,-0.0089909453 357.007782,0.00313707814 C356.231588,0.0185727443 355.496189,0.208210929 354.853404,0.66907582 C354.116902,1.19940121 353.712267,1.94251828 353.559013,2.82124871 C353.495065,3.18398686 353.478527,3.55885304 353.468604,3.92710394 C353.455373,4.50704397 353.466399,5.0847789 353.467501,5.66361638 L353.467501,5.88081826 L351,5.88081826 L351,8.76067255 L353.453168,8.76067255 L353.453168,16 L356.449893,16 L356.449893,8.77280058 L358.895343,8.77280058 C359.019931,7.81578927 359.142314,6.8664958 359.271312,5.87861316 L358.721141,5.87861316 C358.026536,5.88192081 356.430047,5.87861316 356.430047,5.87861316 C356.430047,5.87861316 356.437765,4.45191659 356.454303,3.8311823 C356.478559,2.9833232 356.981321,2.72422452 357.661593,2.69996847 Z" id="Stroke-1"></path>
                </g>
            </g>
        </g>
    </g>
</svg>