<?xml version="1.0" encoding="UTF-8"?>
<svg width="19px" height="17px" viewBox="0 0 19 17" version="1.1" xmlns="http://www.w3.org/2000/svg" xmlns:xlink="http://www.w3.org/1999/xlink">
    <!-- Generator: Sketch 61 (89581) - https://sketch.com -->
    <title>Shape</title>
    <desc>Created with Sketch.</desc>
    <g id="Page-1" stroke="none" stroke-width="1" fill="none" fill-rule="evenodd">
        <g id="Homepage" transform="translate(-340.000000, -512.000000)" fill="#424242" fill-rule="nonzero">
            <g id="Asymmetrical-Block-Copy" transform="translate(132.000000, 146.000000)">
                <g id="Group-7" transform="translate(0.000000, 366.000000)">
                    <path d="M225.857412,3.7835621 C225.580657,3.117565 225.186058,2.52298851 224.684329,2.01768776 C223.713009,1.03922553 222.438151,0.5 221.095444,0.5 C219.565257,0.5 218.131489,1.19635085 217.142313,2.41764312 C216.153138,1.19635085 214.719369,0.5 213.189183,0.5 C211.848261,0.5 210.573404,1.04279656 209.598512,2.02840085 C209.094997,2.53727263 208.698613,3.13363464 208.423644,3.80141725 C208.137961,4.49419708 207.99512,5.22804375 208.002262,5.98331659 C208.014761,7.62063386 208.718254,9.14724919 209.932404,10.1757058 C209.987755,10.2221292 210.039535,10.2667671 210.091315,10.314976 C210.357356,10.554235 211.126913,11.2577279 212.101804,12.1486999 C213.771261,13.6753153 215.8496,15.5751032 216.699506,16.3303761 C216.824492,16.4392925 216.981617,16.5 217.144099,16.5 C217.308366,16.5 217.467277,16.4392925 217.588692,16.3303761 C218.204695,15.782223 219.477767,14.6180672 220.827616,13.3842763 C222.152468,12.1736971 223.521958,10.9202656 224.323655,10.2024886 C225.564588,9.16867537 226.280579,7.62420489 226.285952,5.96546144 C226.287721,5.20661757 226.143095,4.4727709 225.857412,3.7835621 Z M218.138631,3.36396608 C218.868906,2.41407209 219.945572,1.86949001 221.095444,1.86949001 C222.073906,1.86949001 223.004159,2.26587434 223.71658,2.98365138 C224.089752,3.35860953 224.386148,3.80320277 224.595053,4.306718 C224.809315,4.82630287 224.918231,5.38159804 224.918231,5.95474835 C224.916446,6.58860618 224.780747,7.1974668 224.512919,7.76347506 C224.257591,8.29734405 223.889775,8.77586207 223.446967,9.14724919 L223.414828,9.17581743 C222.720262,9.79896217 221.532895,10.8791988 219.888435,12.3861734 C218.602865,13.5628278 217.726177,14.3627385 217.144099,14.8894655 C216.256698,14.0877692 214.810431,12.7682736 213.532002,11.6005468 L212.687453,10.8292043 C211.880401,10.0900011 211.242972,9.50792322 211.005498,9.29544694 C210.991214,9.28294833 210.97693,9.27044973 210.962646,9.25616561 C210.916223,9.21509876 210.868014,9.1722464 210.816234,9.12939404 C209.905621,8.35626604 209.378894,7.20639438 209.36988,5.97438902 C209.366395,5.40302422 209.473526,4.84951456 209.687788,4.32814418 C209.898479,3.82105792 210.194874,3.37289365 210.569833,2.99614998 C211.28761,2.27123089 212.219648,1.87306104 213.190969,1.87306104 C214.339055,1.87306104 215.417506,2.41585761 216.147781,3.36396608 C216.385255,3.67107466 216.756642,3.85319719 217.144099,3.85319719 C217.52977,3.8549827 217.902943,3.67107466 218.138631,3.36396608 Z" id="Shape"></path>
                </g>
            </g>
        </g>
    </g>
</svg>