<?xml version="1.0" encoding="UTF-8"?>
<svg width="18px" height="18px" viewBox="0 0 18 18" version="1.1" xmlns="http://www.w3.org/2000/svg" xmlns:xlink="http://www.w3.org/1999/xlink">
    <!-- Generator: Sketch 61 (89581) - https://sketch.com -->
    <title>Combined Shape</title>
    <desc>Created with Sketch.</desc>
    <g id="Page-1" stroke="none" stroke-width="1" fill="none" fill-rule="evenodd">
        <g id="Homepage" transform="translate(-414.000000, -511.000000)" stroke="#424242" stroke-width="0.8">
            <g id="Asymmetrical-Block-Copy" transform="translate(132.000000, 146.000000)">
                <g id="Group-7" transform="translate(0.000000, 366.000000)">
                    <path d="M286.591512,5.31034483 L286.591512,16 L283.263926,16 L283.263926,5.31034483 L286.591512,5.31034483 Z M295.053316,5.04628647 C298.416711,5.04628647 299.037401,7.25848806 299.037401,10.1377984 L299.037401,15.9998674 L295.717772,15.9998674 L295.717772,10.8035809 C295.717772,9.56220159 295.692573,7.96803714 293.990981,7.96803714 C292.260212,7.96803714 291.997613,9.31816976 291.997613,10.712069 L291.997613,15.9998674 L288.676658,15.9998674 L288.676658,5.3102122 L291.86366,5.3102122 L291.86366,6.77307692 L291.907427,6.77307692 C292.351724,5.93222812 293.435279,5.04628647 295.053316,5.04628647 Z M284.928382,5.15143483e-14 C285.993369,5.15143483e-14 286.855438,0.862068966 286.855438,1.92440318 C286.855438,2.98806366 285.993369,3.85145889 284.928382,3.85145889 C283.862069,3.85145889 283,2.98806366 283,1.92440318 C283,0.862068966 283.862069,5.15143483e-14 284.928382,5.15143483e-14 Z" id="Combined-Shape"></path>
                </g>
            </g>
        </g>
    </g>
</svg>