<?xml version="1.0" encoding="UTF-8"?>
<svg width="16px" height="16px" viewBox="0 0 16 16" version="1.1" xmlns="http://www.w3.org/2000/svg" xmlns:xlink="http://www.w3.org/1999/xlink">
    <!-- Generator: Sketch 61 (89581) - https://sketch.com -->
    <title>Shape</title>
    <desc>Created with Sketch.</desc>
    <g id="Page-1" stroke="none" stroke-width="1" fill="none" fill-rule="evenodd">
        <g id="Homepage" transform="translate(-1380.000000, -26.000000)" fill="#424242" fill-rule="nonzero">
            <g id="Group-36" transform="translate(1236.000000, 21.000000)">
                <g id="Group-6">
                    <path d="M159.796082,19.7689061 L156.291045,16.2638692 C158.604019,13.4045943 158.274264,9.23510717 155.540588,6.77496046 C152.806913,4.31481375 148.625854,4.42483371 146.025344,7.02534361 C143.424834,9.62585351 143.314814,13.8069128 145.77496,16.5405883 C148.235107,19.2742638 152.404594,19.6040192 155.263869,17.2910448 L158.768906,20.7960817 C159.053943,21.0713794 159.507023,21.0674423 159.787233,20.7872327 C160.067442,20.5070231 160.071379,20.0539429 159.796082,19.7689061 L159.796082,19.7689061 Z M145.480273,11.9285199 C145.477829,9.46547973 147.128165,7.30712758 149.505738,6.66391787 C151.883312,6.02070817 154.39672,7.05263381 155.636386,9.18096676 C156.876053,11.3092997 156.533619,14.0046354 154.801132,15.7553664 C154.792414,15.7633572 154.781518,15.7655365 154.773527,15.7735272 C154.765536,15.781518 154.762631,15.7931409 154.755366,15.8011317 C153.193508,17.3473331 150.855196,17.8029027 148.827118,16.9561226 C146.799039,16.1093426 145.478926,14.1262773 145.480273,11.9285199 L145.480273,11.9285199 Z" id="Shape"></path>
                </g>
            </g>
        </g>
    </g>
</svg>