<?xml version="1.0" encoding="UTF-8"?>
<svg width="19px" height="16px" viewBox="0 0 19 16" version="1.1" xmlns="http://www.w3.org/2000/svg" xmlns:xlink="http://www.w3.org/1999/xlink">
    <!-- Generator: Sketch 61 (89581) - https://sketch.com -->
    <title>Stroke 1</title>
    <desc>Created with Sketch.</desc>
    <g id="Page-1" stroke="none" stroke-width="1" fill="none" fill-rule="evenodd">
        <g id="Homepage" transform="translate(-446.000000, -513.000000)" stroke="#424242">
            <g id="Asymmetrical-Block-Copy" transform="translate(132.000000, 146.000000)">
                <g id="Group-7" transform="translate(0.000000, 366.000000)">
                    <path d="M320.218072,12.9554977 C318.380192,12.891032 317.233189,11.5737425 316.929105,10.5021525 C317.439966,10.5994592 317.943528,10.5799978 318.444657,10.4571481 C318.456821,10.4534991 318.4702,10.4462011 318.494527,10.4340378 C317.499566,10.201718 316.732059,9.67018016 316.199305,8.81266484 C315.845352,8.24098796 315.676282,7.61700872 315.681147,6.9322128 C316.177411,7.1985899 316.696786,7.34576629 317.253867,7.36036229 C316.505821,6.82152642 316.004692,6.11726916 315.799131,5.21596582 C315.596004,4.31587881 315.727368,3.46201249 316.178627,2.65558319 C318.09192,4.91066604 320.514857,6.14524484 323.469332,6.34958891 C323.448655,6.20971053 323.426761,6.08686081 323.412164,5.96279477 C323.313641,5.13082245 323.480279,4.35601783 323.929106,3.65176056 C324.491053,2.76870223 325.295049,2.22135203 326.3265,2.05349796 C327.516075,1.85888456 328.553607,2.19702535 329.420853,3.03872833 C329.479237,3.09589602 329.527891,3.1129247 329.609385,3.09589602 C330.335536,2.93777263 331.020332,2.67504453 331.666206,2.30406272 C331.680802,2.29554839 331.696614,2.28703405 331.712426,2.28095238 C331.716075,2.27730338 331.722157,2.27851972 331.735537,2.27851972 C331.45578,3.09954502 330.947352,3.73447126 330.222417,4.20275977 C330.907213,4.12734708 331.560385,3.94489701 332.190445,3.67243824 C332.196527,3.67730357 332.201392,3.68338524 332.205041,3.68825058 C332.070028,3.86461898 331.938664,4.04585271 331.798786,4.21735578 C331.424155,4.68077895 330.993573,5.08703444 330.513121,5.4385549 C330.472982,5.47017958 330.453521,5.49815526 330.455953,5.55045761 C330.475415,6.07591381 330.454737,6.59893734 330.389055,7.12074454 C330.252826,8.21787762 329.947526,9.26635734 329.478021,10.2674001 C328.99392,11.3012838 328.362643,12.2342118 327.567161,13.0540208 C326.221896,14.446723 324.599306,15.3443773 322.709124,15.7615798 C322.062034,15.9038908 321.403997,15.9756545 320.741095,15.9951159 C318.70252,16.0559326 316.818419,15.5487214 315.083927,14.4771313 C315.062033,14.4637516 315.040139,14.4491556 315,14.4236126 C316.234579,14.556193 317.407125,14.3992859 318.537099,13.9358628 C319.136751,13.6901633 319.691399,13.3690512 320.218072,12.9554977 Z" id="Stroke-1"></path>
                </g>
            </g>
        </g>
    </g>
</svg>